<svg width="15" height="12" viewBox="0 0 15 12" fill="none" xmlns="http://www.w3.org/2000/svg">
<path fill-rule="evenodd" clip-rule="evenodd" d="M10.6119 2.22853H12.4845C13.5188 2.22853 14.3572 3.04721 14.3572 4.05711V10.1523C14.3572 11.1622 13.5188 11.9809 12.4845 11.9809H2.49694C1.46269 11.9809 0.624268 11.1622 0.624268 10.1523V4.05711C0.624268 3.04721 1.46269 2.22853 2.49694 2.22853H4.36962C4.36962 1.21864 5.20804 0.399963 6.24229 0.399963H8.73919C9.77344 0.399963 10.6119 1.21864 10.6119 2.22853ZM4.05751 3.44758V10.7619H10.924V3.44758H4.05751ZM12.1724 3.44758V10.7619H12.4845C12.8293 10.7619 13.1088 10.489 13.1088 10.1523V4.05711C13.1088 3.72048 12.8293 3.44758 12.4845 3.44758H12.1724ZM2.49694 3.44758H2.80906V10.7619H2.49694C2.15219 10.7619 1.87272 10.489 1.87272 10.1523V4.05711C1.87272 3.72048 2.15219 3.44758 2.49694 3.44758ZM9.36342 2.22853C9.36342 1.8919 9.08394 1.61901 8.73919 1.61901H6.24229C5.89754 1.61901 5.61807 1.8919 5.61807 2.22853H9.36342Z" fill="#727482"/>
</svg>
