<svg width="13" height="14" viewBox="0 0 13 14" fill="none" xmlns="http://www.w3.org/2000/svg">
<path fill-rule="evenodd" clip-rule="evenodd" d="M6.49058 8.82859C7.86958 8.82859 8.98749 7.73702 8.98749 6.3905C8.98749 5.04398 7.86958 3.9524 6.49058 3.9524C5.11158 3.9524 3.99368 5.04398 3.99368 6.3905C3.99368 7.73702 5.11158 8.82859 6.49058 8.82859ZM6.49058 7.60955C5.80108 7.60955 5.24213 7.06376 5.24213 6.3905C5.24213 5.71724 5.80108 5.17145 6.49058 5.17145C7.18008 5.17145 7.73904 5.71724 7.73904 6.3905C7.73904 7.06376 7.18008 7.60955 6.49058 7.60955Z" fill="#727482"/>
<path fill-rule="evenodd" clip-rule="evenodd" d="M0.872559 6.3113C0.872559 3.32311 3.3901 0.904785 6.49058 0.904785C9.59107 0.904785 12.1086 3.32311 12.1086 6.3113C12.1086 7.78731 11.4903 9.16973 10.4201 10.1752L6.92838 13.5297C6.68546 13.7631 6.29575 13.7631 6.05282 13.5298L2.55631 10.171C1.48707 9.16133 0.872559 7.78276 0.872559 6.3113ZM9.54948 9.30153C10.383 8.51831 10.8602 7.45161 10.8602 6.3113C10.8602 4.00088 8.9061 2.12383 6.49058 2.12383C4.07507 2.12383 2.12101 4.00088 2.12101 6.3113C2.12101 7.44812 2.59519 8.51189 3.42803 9.29838L6.49056 12.2402L9.54948 9.30153Z" fill="#727482"/>
</svg>
