<svg width="14" height="14" viewBox="0 0 14 14" fill="none" xmlns="http://www.w3.org/2000/svg">
<path fill-rule="evenodd" clip-rule="evenodd" d="M2.12185 2.12191C-0.262949 4.50672 -0.262949 8.37324 2.12185 10.758C4.50665 13.1428 8.37318 13.1428 10.758 10.758C13.1428 8.37324 13.1428 4.50672 10.758 2.12191C8.37318 -0.262887 4.50665 -0.262887 2.12185 2.12191ZM3.06466 3.06472C4.92877 1.20062 7.95107 1.20062 9.81518 3.06472C11.6793 4.92883 11.6793 7.95113 9.81518 9.81524C7.95107 11.6793 4.92877 11.6793 3.06466 9.81524C1.20056 7.95113 1.20056 4.92883 3.06466 3.06472Z" fill="#727482"/>
<path d="M13.7295 12.5216L10.9765 9.76865C10.348 9.14011 9.40515 10.0829 10.0337 10.7115L12.7867 13.4644C13.4152 14.093 14.358 13.1502 13.7295 12.5216Z" fill="#727482"/>
</svg>
