<svg width="19" height="17" viewBox="0 0 19 17" fill="none" xmlns="http://www.w3.org/2000/svg">
<path d="M18.4516 2.01315C17.7731 2.35334 17.0442 2.5832 16.2778 2.6871C17.0685 2.15179 17.6601 1.30928 17.9421 0.316766C17.1992 0.816016 16.3862 1.16743 15.5383 1.35574C14.9682 0.666951 14.213 0.21041 13.39 0.0569987C12.567 -0.096413 11.7223 0.0618879 10.987 0.507324C10.2517 0.952761 9.6669 1.66041 9.32346 2.52041C8.98002 3.3804 8.89714 4.34463 9.08767 5.26339C7.58242 5.17788 6.10988 4.73521 4.76562 3.96412C3.42136 3.19304 2.23542 2.11076 1.28477 0.787523C0.959719 1.42194 0.772814 2.1575 0.772814 2.94087C0.772451 3.64608 0.92594 4.34049 1.21966 4.96248C1.51339 5.58448 1.93826 6.11483 2.45659 6.50648C1.85546 6.48484 1.2676 6.30106 0.741934 5.97044V6.02561C0.741873 7.0147 1.04426 7.97335 1.59778 8.73889C2.15131 9.50444 2.92188 10.0297 3.77874 10.2256C3.2211 10.3964 2.63645 10.4216 2.06896 10.2992C2.31072 11.1503 2.78164 11.8945 3.41579 12.4277C4.04995 12.9608 4.81559 13.2563 5.60554 13.2727C4.26456 14.4638 2.60846 15.1098 0.903647 15.107C0.601658 15.1071 0.299923 15.0871 0 15.0472C1.73048 16.3061 3.74489 16.9742 5.8022 16.9716C12.7665 16.9716 16.5736 10.4454 16.5736 4.78528C16.5736 4.60139 16.5696 4.41566 16.5623 4.23177C17.3028 3.62583 17.942 2.87549 18.45 2.0159L18.4516 2.01315V2.01315Z" fill="#001298"/>
</svg>
