<svg width="20" height="20" viewBox="0 0 20 20" fill="none" xmlns="http://www.w3.org/2000/svg">
<path d="M8.33341 3.33341C5.57199 3.33341 3.33341 5.57199 3.33341 8.33341C3.33341 11.0948 5.57199 13.3334 8.33341 13.3334C11.0948 13.3334 13.3334 11.0948 13.3334 8.33341C13.3334 5.57199 11.0948 3.33341 8.33341 3.33341ZM1.66675 8.33341C1.66675 4.65151 4.65151 1.66675 8.33341 1.66675C12.0153 1.66675 15.0001 4.65151 15.0001 8.33341C15.0001 9.874 14.4775 11.2926 13.6 12.4214L18.0893 16.9108C18.4147 17.2362 18.4147 17.7639 18.0893 18.0893C17.7639 18.4147 17.2362 18.4147 16.9108 18.0893L12.4214 13.6C11.2926 14.4775 9.874 15.0001 8.33341 15.0001C4.65151 15.0001 1.66675 12.0153 1.66675 8.33341Z" fill="#9DA3AE"/>
</svg>
