<svg width="17" height="15" viewBox="0 0 17 15" fill="none" xmlns="http://www.w3.org/2000/svg">
<path d="M3.66961 4.87442V14.9987H0.201891V4.87442H3.66961ZM3.89008 1.74877L3.89136 1.81C3.89136 2.27804 3.68696 2.69921 3.36044 2.99415L3.35915 2.99478C3.16681 3.1658 2.94148 3.29805 2.69622 3.38386C2.45096 3.46966 2.19062 3.50733 1.93029 3.49468H1.93479H1.91357C1.65922 3.50641 1.40505 3.46813 1.16627 3.38212C0.927488 3.29612 0.709012 3.16416 0.523916 2.99415L0.524559 2.99478C0.352688 2.83356 0.217321 2.63925 0.127117 2.42426C0.036913 2.20928 -0.0061422 1.97835 0.000705656 1.74627V1.74877L6.28908e-05 1.70565C6.28908e-05 1.22949 0.208319 0.800821 0.540628 0.500253L0.541914 0.499628C0.927919 0.157853 1.43766 -0.0210408 1.95921 0.00222253H1.95535C2.21089 -0.00991945 2.46634 0.0277789 2.70666 0.113097C2.94698 0.198415 3.1673 0.329627 3.35465 0.499003L3.35337 0.497753C3.52332 0.656576 3.65847 0.84717 3.7507 1.05808C3.84294 1.26898 3.89034 1.49584 3.89008 1.72502V1.75127V1.75002V1.74877ZM16.1425 9.19735V14.9987H12.6857V9.58415C12.7208 8.98999 12.5695 8.39945 12.2518 7.89072L12.2595 7.90385C12.11 7.69916 11.9085 7.53562 11.6747 7.42917C11.4408 7.32272 11.1826 7.277 10.9251 7.29646H10.9303C10.528 7.2825 10.1338 7.40833 9.8183 7.65139L9.82215 7.6489C9.53089 7.87712 9.30287 8.17246 9.15882 8.50811L9.15368 8.52248C9.06566 8.79106 9.02672 9.07255 9.03862 9.3542V9.34982V15H5.58183C5.59597 12.2826 5.60305 10.0793 5.60305 8.39C5.60305 6.70074 5.59962 5.69281 5.59276 5.3662L5.58248 4.87567H9.03927V6.34664H9.01806C9.15561 6.13106 9.29766 5.94422 9.45385 5.76925L9.44871 5.77488C9.62933 5.58179 9.82344 5.40745 10.0323 5.25123L10.0426 5.24373C10.3101 5.04421 10.6135 4.89501 10.9374 4.80381L10.9566 4.79944C11.3318 4.69301 11.7208 4.63956 12.1117 4.64072H12.1625H12.1599C12.6987 4.61865 13.236 4.71066 13.7347 4.91037C14.2333 5.11008 14.6814 5.41273 15.0478 5.79737L15.0498 5.79987C15.7791 6.57306 16.1437 7.70534 16.1437 9.19673L16.1425 9.19735Z" fill="#001298"/>
</svg>
